# xmcd
#
# Track frame offsets:
#   150
#   16925
#   33897
#   51142
#   69477
#   85250
#   100500
#   119087
#   135225
#   149315
#   166595
#   181775
#   196675
#   214775
#
# Disc length: 3027 seconds
#
# Revision: 0
# Processed by: cddbd v1.5.2PL0 Copyright (c) Steve Scherf et al.
# Submitted via: uFREEDB ActiveX Control 1.5
#
DISCID=ad0bd10e
DTITLE=Wando - Retratos Wando
DYEAR=2004
DGENRE=Pop
TTITLE0=O importante é ser fevereiro
TTITLE1=Nega de Obaluaê
TTITLE2=Na baixa do sapateiro
TTITLE3=Moça
TTITLE4=A paz que nasceu pra mim
TTITLE5=Gosto de maçã
TTITLE6=Vê, coração bandido
TTITLE7=Gazela
TTITLE8=Emoções
TTITLE9=Corações luzitanos
TTITLE10=Senhorita, senhorita
TTITLE11=Samba da poeira
TTITLE12=Odoiá
TTITLE13=Pago pra ver
EXTD=
EXTT0=
EXTT1=
EXTT2=
EXTT3=
EXTT4=
EXTT5=
EXTT6=
EXTT7=
EXTT8=
EXTT9=
EXTT10=
EXTT11=
EXTT12=
EXTT13=
PLAYORDER=
